PathFileType	4	(X/Y/Z)	TVC_12_BWA3_walk_RCNL2025.trc
DataRate	CameraRate	NumFrames	NumMarkers	Units	OrigDataRate	OrigDataStartFrame	OrigNumFrames
100	100	8	27	mm	100	45	354
Frame#	Time	R_Shoulder			L_Shoulder			C7			J_Notch			R_Elbow			L_Elbow			R_Wrist			L_Wrist			R_Asis			L_Asis			R_Psis			L_Psis			Sacral			Thoracic			Sternum			R_Thigh_Lateral			R_Knee_Lateral			R_Shank_Lateral			R_Ankle_Lateral			R_Heel			R_Toe			L_Thigh_Lateral			L_Knee_Lateral			L_Shank_Lateral			L_Ankle_Lateral			L_Heel			L_Toe		
		X1	Y1	Z1	X2	Y2	Z2	X3	Y3	Z3	X4	Y4	Z4	X5	Y5	Z5	X6	Y6	Z6	X7	Y7	Z7	X8	Y8	Z8	X9	Y9	Z9	X10	Y10	Z10	X11	Y11	Z11	X12	Y12	Z12	X13	Y13	Z13	X14	Y14	Z14	X15	Y15	Z15	X16	Y16	Z16	X17	Y17	Z17	X18	Y18	Z18	X19	Y19	Z19	X20	Y20	Z20	X21	Y21	Z21	X22	Y22	Z22	X23	Y23	Z23	X24	Y24	Z24	X25	Y25	Z25	X26	Y26	Z26	X27	Y27	Z27
45	0.44000000	-1650.239136	1339.913696	531.580688	-1652.052368	1368.691895	113.847504	-1756.242798	1425.340454	330.531555	-1603.569092	1309.507935	324.823608	-1752.540405	1015.116821	584.516174	-1807.455811	1062.689697	42.769524	-1689.888367	774.927765	548.307678	-1731.614746	832.702606	62.604416	-1690.014648	908.805298	471.018066	-1681.249878	936.773804	123.354469	-1862.421997	961.476807	358.174286	-1864.096558	964.659668	249.441238	-1863.259277	963.068237	303.807762	-1846.516602	1174.203003	309.649902	-1521.284546	1117.676270	306.356720	-1710.101196	601.534729	483.267700	-1696.792480	471.908569	428.079163	-1755.588745	260.776947	464.948303	-1797.458740	56.728264	400.227844	-1835.809692	55.138771	340.044708	-1662.486084	41.523922	391.556671	-1632.462158	651.949951	35.711761	-1613.048706	490.734406	89.266846	-1737.798950	339.294128	47.507080	-1846.601807	153.568008	119.429604	-1890.854980	158.868393	174.356583	-1739.055542	66.628716	129.029419
46	0.45000000	-1643.116699	1339.926392	531.874939	-1646.875977	1368.640869	114.145889	-1749.949951	1425.405518	331.270630	-1597.408203	1309.399536	324.921265	-1744.603638	1015.105286	585.825684	-1802.923950	1062.662842	43.997673	-1681.121765	774.985870	550.946075	-1727.504883	832.460175	63.977005	-1684.158813	908.665894	471.771820	-1676.227173	936.849243	124.020569	-1856.654175	961.817688	359.270325	-1858.589600	964.863892	250.591339	-1857.621887	963.340790	304.930832	-1840.569092	1174.372437	310.927856	-1515.542480	1117.411011	306.144653	-1707.475342	601.321655	483.449097	-1695.097534	471.599792	428.102478	-1754.717896	260.684753	464.942474	-1797.407959	56.791874	400.170258	-1835.772217	55.284313	339.995850	-1662.511108	41.527920	391.546539	-1626.376587	652.445557	36.325123	-1602.283936	492.428009	90.862984	-1722.759277	337.003967	49.462700	-1824.449951	147.252167	121.688576	-1868.592651	150.800354	176.926331	-1713.275879	64.615303	130.503052
47	0.46000000	-1636.019531	1339.928467	532.084656	-1641.628784	1368.541138	114.363876	-1743.632202	1425.428589	331.899048	-1591.225708	1309.250610	324.950439	-1736.716797	1015.103638	587.062866	-1798.422363	1062.661377	45.099567	-1672.353271	775.063477	553.482178	-1723.551331	832.222565	65.238575	-1678.234985	908.588379	472.341431	-1671.182617	936.872375	124.617088	-1850.888794	962.130188	360.261871	-1853.075562	965.038757	251.638702	-1851.982178	963.584473	305.950287	-1834.600830	1174.504395	312.082520	-1509.778320	1117.105347	305.909821	-1704.749634	601.116272	483.584137	-1693.368652	471.296814	428.077332	-1753.830811	260.610901	464.908173	-1797.350708	56.866707	400.100616	-1835.729248	55.449635	339.941650	-1662.530029	41.529102	391.530914	-1620.225220	652.884888	36.936768	-1592.135132	493.998535	92.422112	-1707.894287	334.540680	51.408012	-1801.880615	140.809326	123.828827	-1845.696899	142.509415	179.474991	-1687.207153	62.583801	131.611191
48	0.47000000	-1628.948120	1339.912109	532.210144	-1636.296997	1368.380127	114.500702	-1737.286377	1425.405884	332.413147	-1585.019043	1309.056396	324.913696	-1728.884521	1015.105286	588.233032	-1793.932251	1062.670898	46.072727	-1663.582153	775.159485	555.906281	-1719.722046	831.975861	66.396933	-1672.240112	908.553345	472.741638	-1666.117920	936.830017	125.138329	-1845.120117	962.409546	361.157043	-1847.550415	965.177307	252.588318	-1846.335266	963.793427	306.872681	-1828.608398	1174.595459	313.109100	-1503.987061	1116.755005	305.654205	-1701.863892	600.923889	483.682770	-1691.600342	470.998871	428.008423	-1752.930664	260.556976	464.846649	-1797.287476	56.953331	400.021088	-1835.681396	55.634937	339.883453	-1662.544067	41.529926	391.511658	-1614.010010	653.247314	37.529411	-1582.620728	495.400024	93.948586	-1693.204834	331.916168	53.336048	-1778.913696	134.336578	125.830788	-1822.200928	134.118530	181.962692	-1660.890137	60.640511	132.345825
49	0.48000000	-1621.902832	1339.868896	532.250977	-1630.868530	1368.145142	114.554871	-1730.909302	1425.333008	332.808960	-1578.785522	1308.811279	324.812317	-1721.110474	1015.102356	589.340210	-1789.434204	1062.674561	46.916386	-1654.808777	775.270905	558.209900	-1716.008240	831.694275	67.466450	-1666.176636	908.538025	472.991516	-1661.036255	936.706665	125.579117	-1839.342163	962.650940	361.962463	-1842.009033	965.271545	253.443878	-1840.675598	963.961243	307.703171	-1822.588989	1174.641113	314.002533	-1498.164062	1116.354614	305.378235	-1698.778809	600.745605	483.752319	-1689.792725	470.705566	427.900665	-1752.021973	260.523712	464.759613	-1797.218994	57.051960	399.934753	-1835.630127	55.839123	339.822205	-1662.554932	41.533699	391.491394	-1607.771240	653.495728	38.086105	-1573.746826	496.587433	95.448700	-1678.680176	329.144562	55.233433	-1755.570190	127.930168	127.672821	-1798.147949	125.751625	184.339432	-1634.356812	58.889126	132.724243
50	0.49000000	-1614.883789	1339.790039	532.205872	-1625.333618	1367.824951	114.524162	-1724.498535	1425.205078	333.082336	-1572.522949	1308.509399	324.646393	-1713.396729	1015.086670	590.386658	-1784.908447	1062.655029	47.631393	-1646.034790	775.393188	560.385437	-1712.411743	831.346588	68.463238	-1660.050903	908.518677	473.113068	-1655.940186	936.485718	125.934761	-1833.548828	962.849182	362.682678	-1836.445801	965.312439	254.207504	-1834.997314	964.080811	308.445091	-1816.540161	1174.636230	314.757751	-1492.305176	1115.897949	305.080933	-1695.476685	600.579285	483.797455	-1687.951416	470.417175	427.758850	-1751.111084	260.510681	464.649292	-1797.146973	57.162323	399.845184	-1835.577515	56.059788	339.758301	-1662.564209	41.542934	391.472412	-1601.583984	653.575256	38.591663	-1565.506592	497.519928	96.929893	-1664.299316	326.246246	57.079266	-1731.876587	121.685776	129.329483	-1773.595581	117.532433	186.544464	-1607.636108	57.429478	132.786377
51	0.50000000	-1607.890869	1339.666870	532.072876	-1619.684692	1367.409546	114.405716	-1718.052124	1425.016602	333.228760	-1566.229004	1308.144287	324.414581	-1705.744507	1015.050049	591.372864	-1780.335693	1062.594360	48.219967	-1637.263123	775.520721	562.426666	-1708.936218	830.903412	69.401953	-1653.872437	908.472961	473.129578	-1650.830688	936.151001	126.200989	-1827.734009	962.999084	363.319885	-1830.853516	965.290100	254.879745	-1829.293762	964.144592	309.099815	-1810.459473	1174.574707	315.369659	-1486.407104	1115.378784	304.760315	-1691.959839	600.421143	483.820496	-1686.087891	470.134644	427.587585	-1750.205811	260.515808	464.518372	-1797.073730	57.283497	399.756042	-1835.525391	56.293350	339.691284	-1662.572388	41.557808	391.455597	-1595.545166	653.418884	39.032749	-1557.880737	498.164032	98.400452	-1650.034424	323.251465	58.845520	-1707.869263	115.697739	130.769974	-1748.617920	109.582191	188.507095	-1580.761963	56.357388	132.589340
52	0.51000000	-1600.924194	1339.491699	531.849304	-1613.916260	1366.891235	114.196045	-1711.568970	1424.761841	333.243561	-1559.901978	1307.709473	324.114532	-1698.154175	1014.984985	592.297485	-1775.697632	1062.475586	48.685352	-1628.498169	775.647064	564.328644	-1705.583252	830.342438	70.294395	-1647.651978	908.382019	473.063934	-1645.704712	935.687988	126.373909	-1821.891846	963.095093	363.873657	-1825.224731	965.193909	255.459625	-1823.558289	964.144501	309.666641	-1804.344604	1174.449951	315.833191	-1480.466553	1114.790649	304.413544	-1688.246216	600.266541	483.821259	-1684.218262	469.859802	427.391022	-1749.316040	260.536255	464.369934	-1797.002075	57.413921	399.670288	-1835.476318	56.535332	339.620026	-1662.579102	41.575634	391.440186	-1589.756714	652.956299	39.397705	-1550.838013	498.496094	99.869766	-1635.855591	320.202576	60.498844	-1683.598755	110.057381	131.957184	-1723.309448	102.015762	190.149185	-1553.781738	55.767765	132.199844
